# xmcd
#
# Track frame offsets:
#	182
#	19367
#	32512
#	43855
#	57377
#	70152
#	85530
#	102765
#	114230
#	123792
#	136577
#	147045
#	160560
#	172727
#	192082
#	203795
#
# Disc length: 2917 seconds
#
# Revision: 0
# Processed by: cddbd v1.4PL0 Copyright (c) Steve Scherf et al.
# Submitted via: audiograbber 1.81.01
#
DISCID=c10b6310
DTITLE=Bobbie Gentry - Country classics
DYEAR=1900
DGENRE=
TTITLE0=Ode to Billie Joe
TTITLE1=I'll never fall in love again
TTITLE2=Where's the playground Johnny
TTITLE3=Big boss man
TTITLE4=Tobacco road
TTITLE5=Come away Melinda
TTITLE6=Fool on the hill
TTITLE7=Here, there and everywhere
TTITLE8=Billy the kid
TTITLE9=In the ghetto
TTITLE10=If you gotta make a fool of somebody
TTITLE11=Okolono river
TTITLE12=Louisiana man
TTITLE13=Fancy
TTITLE14=He made a woman out of me
TTITLE15=Apartment 21
EXTD=
EXTT0=
EXTT1=
EXTT2=
EXTT3=
EXTT4=
EXTT5=
EXTT6=
EXTT7=
EXTT8=
EXTT9=
EXTT10=
EXTT11=
EXTT12=
EXTT13=
EXTT14=
EXTT15=
PLAYORDER=
